<?xml version="1.0" encoding="UTF-8" standalone="no"?>
<!-- Created with Inkscape (http://www.inkscape.org/) -->

<svg
   xmlns:dc="http://purl.org/dc/elements/1.1/"
   xmlns:cc="http://creativecommons.org/ns#"
   xmlns:rdf="http://www.w3.org/1999/02/22-rdf-syntax-ns#"
   xmlns:svg="http://www.w3.org/2000/svg"
   xmlns="http://www.w3.org/2000/svg"
   xmlns:xlink="http://www.w3.org/1999/xlink"
   xmlns:sodipodi="http://sodipodi.sourceforge.net/DTD/sodipodi-0.dtd"
   xmlns:inkscape="http://www.inkscape.org/namespaces/inkscape"
   width="48"
   height="48"
   id="svg2"
   version="1.1"
   inkscape:version="0.48.2 r9819"
   sodipodi:docname="logo-aguila.svg"
   inkscape:export-filename="/home/ejosvp/proyectos/aguila/web/favicon.ico.png"
   inkscape:export-xdpi="108.26692"
   inkscape:export-ydpi="108.26692">
  <defs
     id="defs4">
    <inkscape:path-effect
       effect="skeletal"
       id="path-effect3810"
       is_visible="true"
       pattern="m 1.2175649,-4.5545024 10.0000001,5.00000003 0,-10.00000003 z"
       copytype="single_stretched"
       prop_scale="1"
       scale_y_rel="false"
       spacing="0"
       normal_offset="0"
       tang_offset="0"
       prop_units="false"
       vertical_pattern="false"
       fuse_tolerance="0" />
    <inkscape:path-effect
       fuse_tolerance="0"
       vertical_pattern="false"
       prop_units="false"
       tang_offset="0"
       normal_offset="0"
       spacing="0"
       scale_y_rel="false"
       prop_scale="1"
       copytype="single_stretched"
       pattern="m 1.331309,5 10,5 0,-10 z"
       is_visible="true"
       id="path-effect3802"
       effect="skeletal" />
    <inkscape:path-effect
       fuse_tolerance="0"
       vertical_pattern="false"
       prop_units="false"
       tang_offset="0"
       normal_offset="0"
       spacing="0"
       scale_y_rel="false"
       prop_scale="1"
       copytype="single_stretched"
       pattern="m 23.331309,5 10,5 0,-10 z"
       is_visible="true"
       id="path-effect3789"
       effect="skeletal" />
    <inkscape:path-effect
       effect="skeletal"
       id="path-effect3787"
       is_visible="true"
       pattern="M 22,5 32,10 32,0 z"
       copytype="single_stretched"
       prop_scale="1"
       scale_y_rel="false"
       spacing="0"
       normal_offset="0"
       tang_offset="0"
       prop_units="false"
       vertical_pattern="false"
       fuse_tolerance="0" />
    <inkscape:path-effect
       fuse_tolerance="0"
       vertical_pattern="false"
       prop_units="false"
       tang_offset="0"
       normal_offset="0"
       spacing="0"
       scale_y_rel="false"
       prop_scale="1"
       copytype="single_stretched"
       pattern="M 22,5 32,10 32,0 z"
       is_visible="true"
       id="path-effect3785"
       effect="skeletal" />
    <inkscape:path-effect
       fuse_tolerance="0"
       vertical_pattern="false"
       prop_units="false"
       tang_offset="0"
       normal_offset="0"
       spacing="0"
       scale_y_rel="false"
       prop_scale="1"
       copytype="single_stretched"
       pattern="m 1.445053,-23.436019 10,5 0,-10 z"
       is_visible="true"
       id="path-effect3777"
       effect="skeletal" />
    <inkscape:path-effect
       effect="skeletal"
       id="path-effect3769"
       is_visible="true"
       pattern="m 1.331309,5 10,5 0,-10 z"
       copytype="single_stretched"
       prop_scale="1"
       scale_y_rel="false"
       spacing="0"
       normal_offset="0"
       tang_offset="0"
       prop_units="false"
       vertical_pattern="false"
       fuse_tolerance="0" />
    <inkscape:path-effect
       fuse_tolerance="0"
       vertical_pattern="false"
       prop_units="false"
       tang_offset="0"
       normal_offset="0"
       spacing="0"
       scale_y_rel="false"
       prop_scale="1"
       copytype="single_stretched"
       pattern="M 0,5 10,10 10,0 z"
       is_visible="true"
       id="path-effect2997"
       effect="skeletal" />
    <inkscape:path-effect
       effect="skeletal"
       id="path-effect2993"
       is_visible="true"
       pattern="M 0,5 10,10 10,0 z"
       copytype="single_stretched"
       prop_scale="1"
       scale_y_rel="false"
       spacing="0"
       normal_offset="0"
       tang_offset="0"
       prop_units="false"
       vertical_pattern="false"
       fuse_tolerance="0" />
    <inkscape:path-effect
       effect="skeletal"
       id="path-effect2993-1"
       is_visible="true"
       pattern="M 0,5 10,10 10,0 z"
       copytype="single_stretched"
       prop_scale="1"
       scale_y_rel="false"
       spacing="0"
       normal_offset="0"
       tang_offset="0"
       prop_units="false"
       vertical_pattern="false"
       fuse_tolerance="0" />
    <inkscape:path-effect
       fuse_tolerance="0"
       vertical_pattern="false"
       prop_units="false"
       tang_offset="0"
       normal_offset="0"
       spacing="0"
       scale_y_rel="false"
       prop_scale="1"
       copytype="single_stretched"
       pattern="m 1.331309,5 10,5 0,-10 z"
       is_visible="true"
       id="path-effect3802-4"
       effect="skeletal" />
    <inkscape:path-effect
       effect="skeletal"
       id="path-effect3015"
       is_visible="true"
       pattern="M 0,5 10,10 10,0 z"
       copytype="single_stretched"
       prop_scale="1"
       scale_y_rel="false"
       spacing="0"
       normal_offset="0"
       tang_offset="0"
       prop_units="false"
       vertical_pattern="false"
       fuse_tolerance="0" />
    <inkscape:path-effect
       effect="skeletal"
       id="path-effect3017"
       is_visible="true"
       pattern="M 0,5 10,10 10,0 z"
       copytype="single_stretched"
       prop_scale="1"
       scale_y_rel="false"
       spacing="0"
       normal_offset="0"
       tang_offset="0"
       prop_units="false"
       vertical_pattern="false"
       fuse_tolerance="0" />
    <inkscape:path-effect
       fuse_tolerance="0"
       vertical_pattern="false"
       prop_units="false"
       tang_offset="0"
       normal_offset="0"
       spacing="0"
       scale_y_rel="false"
       prop_scale="1"
       copytype="single_stretched"
       pattern="m 1.331309,5 10,5 0,-10 z"
       is_visible="true"
       id="path-effect3019"
       effect="skeletal" />
    <inkscape:path-effect
       fuse_tolerance="0"
       vertical_pattern="false"
       prop_units="false"
       tang_offset="0"
       normal_offset="0"
       spacing="0"
       scale_y_rel="false"
       prop_scale="1"
       copytype="single_stretched"
       pattern="m 1.331309,5 10,5 0,-10 z"
       is_visible="true"
       id="path-effect3021"
       effect="skeletal" />
    <inkscape:path-effect
       fuse_tolerance="0"
       vertical_pattern="false"
       prop_units="false"
       tang_offset="0"
       normal_offset="0"
       spacing="0"
       scale_y_rel="false"
       prop_scale="1"
       copytype="single_stretched"
       pattern="m 12.960512,-13.302415 10.000001,4.9999997 0,-9.9999997 z"
       is_visible="true"
       id="path-effect3777-9"
       effect="skeletal" />
    <inkscape:path-effect
       effect="skeletal"
       id="path-effect3024"
       is_visible="true"
       pattern="M 0,5 10,10 10,0 z"
       copytype="single_stretched"
       prop_scale="1"
       scale_y_rel="false"
       spacing="0"
       normal_offset="0"
       tang_offset="0"
       prop_units="false"
       vertical_pattern="false"
       fuse_tolerance="0" />
    <inkscape:path-effect
       fuse_tolerance="0"
       vertical_pattern="false"
       prop_units="false"
       tang_offset="0"
       normal_offset="0"
       spacing="0"
       scale_y_rel="false"
       prop_scale="1"
       copytype="single_stretched"
       pattern="m 1.331309,5 10,5 0,-10 z"
       is_visible="true"
       id="path-effect3026"
       effect="skeletal" />
    <inkscape:path-effect
       effect="skeletal"
       id="path-effect3028"
       is_visible="true"
       pattern="M 0,5 10,10 10,0 z"
       copytype="single_stretched"
       prop_scale="1"
       scale_y_rel="false"
       spacing="0"
       normal_offset="0"
       tang_offset="0"
       prop_units="false"
       vertical_pattern="false"
       fuse_tolerance="0" />
    <inkscape:path-effect
       effect="skeletal"
       id="path-effect3030"
       is_visible="true"
       pattern="M 0,5 10,10 10,0 z"
       copytype="single_stretched"
       prop_scale="1"
       scale_y_rel="false"
       spacing="0"
       normal_offset="0"
       tang_offset="0"
       prop_units="false"
       vertical_pattern="false"
       fuse_tolerance="0" />
    <inkscape:path-effect
       fuse_tolerance="0"
       vertical_pattern="false"
       prop_units="false"
       tang_offset="0"
       normal_offset="0"
       spacing="0"
       scale_y_rel="false"
       prop_scale="1"
       copytype="single_stretched"
       pattern="m 1.331309,5 10,5 0,-10 z"
       is_visible="true"
       id="path-effect3032"
       effect="skeletal" />
    <inkscape:path-effect
       fuse_tolerance="0"
       vertical_pattern="false"
       prop_units="false"
       tang_offset="0"
       normal_offset="0"
       spacing="0"
       scale_y_rel="false"
       prop_scale="1"
       copytype="single_stretched"
       pattern="m 1.331309,5 10,5 0,-10 z"
       is_visible="true"
       id="path-effect3034"
       effect="skeletal" />
    <inkscape:path-effect
       fuse_tolerance="0"
       vertical_pattern="false"
       prop_units="false"
       tang_offset="0"
       normal_offset="0"
       spacing="0"
       scale_y_rel="false"
       prop_scale="1"
       copytype="single_stretched"
       pattern="m 58.405591,-15.446059 10,5 0,-10 z"
       is_visible="true"
       id="path-effect3777-2"
       effect="skeletal" />
    <inkscape:path-effect
       fuse_tolerance="0"
       vertical_pattern="false"
       prop_units="false"
       tang_offset="0"
       normal_offset="0"
       spacing="0"
       scale_y_rel="false"
       prop_scale="1"
       copytype="single_stretched"
       pattern="m 86.621099,994.31044 10,5 0,-10 z"
       is_visible="true"
       id="path-effect3777-2-9"
       effect="skeletal" />
    <inkscape:path-effect
       effect="skeletal"
       id="path-effect2993-6"
       is_visible="true"
       pattern="M 0,5 10,10 10,0 z"
       copytype="single_stretched"
       prop_scale="1"
       scale_y_rel="false"
       spacing="0"
       normal_offset="0"
       tang_offset="0"
       prop_units="false"
       vertical_pattern="false"
       fuse_tolerance="0" />
    <inkscape:path-effect
       fuse_tolerance="0"
       vertical_pattern="false"
       prop_units="false"
       tang_offset="0"
       normal_offset="0"
       spacing="0"
       scale_y_rel="false"
       prop_scale="1"
       copytype="single_stretched"
       pattern="m 1.331309,5 10,5 0,-10 z"
       is_visible="true"
       id="path-effect3802-8"
       effect="skeletal" />
    <inkscape:path-effect
       effect="skeletal"
       id="path-effect3460"
       is_visible="true"
       pattern="M 0,5 10,10 10,0 z"
       copytype="single_stretched"
       prop_scale="1"
       scale_y_rel="false"
       spacing="0"
       normal_offset="0"
       tang_offset="0"
       prop_units="false"
       vertical_pattern="false"
       fuse_tolerance="0" />
    <inkscape:path-effect
       effect="skeletal"
       id="path-effect3462"
       is_visible="true"
       pattern="M 0,5 10,10 10,0 z"
       copytype="single_stretched"
       prop_scale="1"
       scale_y_rel="false"
       spacing="0"
       normal_offset="0"
       tang_offset="0"
       prop_units="false"
       vertical_pattern="false"
       fuse_tolerance="0" />
    <inkscape:path-effect
       fuse_tolerance="0"
       vertical_pattern="false"
       prop_units="false"
       tang_offset="0"
       normal_offset="0"
       spacing="0"
       scale_y_rel="false"
       prop_scale="1"
       copytype="single_stretched"
       pattern="m 1.331309,5 10,5 0,-10 z"
       is_visible="true"
       id="path-effect3464"
       effect="skeletal" />
    <inkscape:path-effect
       fuse_tolerance="0"
       vertical_pattern="false"
       prop_units="false"
       tang_offset="0"
       normal_offset="0"
       spacing="0"
       scale_y_rel="false"
       prop_scale="1"
       copytype="single_stretched"
       pattern="m 1.331309,5 10,5 0,-10 z"
       is_visible="true"
       id="path-effect3466"
       effect="skeletal" />
    <inkscape:path-effect
       fuse_tolerance="0"
       vertical_pattern="false"
       prop_units="false"
       tang_offset="0"
       normal_offset="0"
       spacing="0"
       scale_y_rel="false"
       prop_scale="1"
       copytype="single_stretched"
       pattern="m 1.445053,-23.436019 10,5 0,-10 z"
       is_visible="true"
       id="path-effect3777-7"
       effect="skeletal" />
    <inkscape:path-effect
       effect="skeletal"
       id="path-effect3469"
       is_visible="true"
       pattern="M 0,5 10,10 10,0 z"
       copytype="single_stretched"
       prop_scale="1"
       scale_y_rel="false"
       spacing="0"
       normal_offset="0"
       tang_offset="0"
       prop_units="false"
       vertical_pattern="false"
       fuse_tolerance="0" />
    <inkscape:path-effect
       fuse_tolerance="0"
       vertical_pattern="false"
       prop_units="false"
       tang_offset="0"
       normal_offset="0"
       spacing="0"
       scale_y_rel="false"
       prop_scale="1"
       copytype="single_stretched"
       pattern="m 1.331309,5 10,5 0,-10 z"
       is_visible="true"
       id="path-effect3471"
       effect="skeletal" />
    <inkscape:path-effect
       effect="skeletal"
       id="path-effect3473"
       is_visible="true"
       pattern="M 0,5 10,10 10,0 z"
       copytype="single_stretched"
       prop_scale="1"
       scale_y_rel="false"
       spacing="0"
       normal_offset="0"
       tang_offset="0"
       prop_units="false"
       vertical_pattern="false"
       fuse_tolerance="0" />
    <inkscape:path-effect
       effect="skeletal"
       id="path-effect3475"
       is_visible="true"
       pattern="M 0,5 10,10 10,0 z"
       copytype="single_stretched"
       prop_scale="1"
       scale_y_rel="false"
       spacing="0"
       normal_offset="0"
       tang_offset="0"
       prop_units="false"
       vertical_pattern="false"
       fuse_tolerance="0" />
    <inkscape:path-effect
       fuse_tolerance="0"
       vertical_pattern="false"
       prop_units="false"
       tang_offset="0"
       normal_offset="0"
       spacing="0"
       scale_y_rel="false"
       prop_scale="1"
       copytype="single_stretched"
       pattern="m 1.331309,5 10,5 0,-10 z"
       is_visible="true"
       id="path-effect3477"
       effect="skeletal" />
    <inkscape:path-effect
       fuse_tolerance="0"
       vertical_pattern="false"
       prop_units="false"
       tang_offset="0"
       normal_offset="0"
       spacing="0"
       scale_y_rel="false"
       prop_scale="1"
       copytype="single_stretched"
       pattern="m 1.331309,5 10,5 0,-10 z"
       is_visible="true"
       id="path-effect3479"
       effect="skeletal" />
  </defs>
  <sodipodi:namedview
     id="base"
     pagecolor="#ffffff"
     bordercolor="#666666"
     borderopacity="1.0"
     inkscape:pageopacity="0.0"
     inkscape:pageshadow="2"
     inkscape:zoom="16"
     inkscape:cx="20.839639"
     inkscape:cy="24.235838"
     inkscape:document-units="px"
     inkscape:current-layer="layer1"
     showgrid="false"
     inkscape:snap-page="false"
     inkscape:snap-bbox="true"
     inkscape:window-width="1680"
     inkscape:window-height="996"
     inkscape:window-x="0"
     inkscape:window-y="26"
     inkscape:window-maximized="1" />
  <metadata
     id="metadata7">
    <rdf:RDF>
      <cc:Work
         rdf:about="">
        <dc:format>image/svg+xml</dc:format>
        <dc:type
           rdf:resource="http://purl.org/dc/dcmitype/StillImage" />
        <dc:title></dc:title>
      </cc:Work>
    </rdf:RDF>
  </metadata>
  <g
     inkscape:label="Capa 1"
     inkscape:groupmode="layer"
     id="layer1"
     transform="translate(0,-1004.3622)">
    <path
       sodipodi:type="arc"
       style="fill:#000000;fill-opacity:1;stroke:#000000;stroke-opacity:1"
       id="path2987-3"
       sodipodi:cx="24"
       sodipodi:cy="24"
       sodipodi:rx="24"
       sodipodi:ry="24"
       d="M 48,24 C 48,37.254834 37.254834,48 24,48 10.745166,48 0,37.254834 0,24 0,10.745166 10.745166,0 24,0 37.254834,0 48,10.745166 48,24 z"
       transform="matrix(0.468935,0,0,0.468935,25.282134,1004.5967)" />
    <path
       sodipodi:type="arc"
       style="fill:none;stroke:#000000"
       id="path2987"
       sodipodi:cx="24"
       sodipodi:cy="24"
       sodipodi:rx="24"
       sodipodi:ry="24"
       d="M 48,24 C 48,37.254834 37.254834,48 24,48 10.745166,48 0,37.254834 0,24 0,10.745166 10.745166,0 24,0 37.254834,0 48,10.745166 48,24 z"
       transform="matrix(0.468935,0,0,0.468935,0.23446742,1004.5967)" />
    <g
       id="g3827"
       transform="matrix(0.47870447,0,0,0.47870447,0.19715087,523.93217)">
      <g
         id="g3791">
        <path
           style="fill:#000000;fill-rule:evenodd;stroke:none"
           d="m 3.7535544,15.014217 c -0.5922145,2.127574 -0.3890617,4.59978 0.5753903,6.841545 1.1053257,2.567262 3.5605159,4.743932 6.9441503,5.203831 0,0 0,0 1e-6,0 3.472254,0.728929 6.803016,1.237672 7.276833,2.945295 0,0 0,0 0,0 -0.04525,0.151909 -0.141864,0.258225 -0.34003,0.198237 -0.08624,-0.07345 -0.19422,0.180543 -0.179373,0.78717 l 9.891552,-1.46874 c -0.154095,-0.531146 -0.423168,-1.425744 -0.90879,-2.577884 -0.748147,-1.545419 -1.825783,-2.751763 -3.104739,-3.593308 -1e-6,-1e-6 -2e-6,-1e-6 -3e-6,-2e-6 -4.919431,-2.635338 -9.273656,-2.002305 -12.724714,-1.146094 0,0 0,0 -1e-6,0 C 9.7987195,22.751837 7.7222392,22.094781 6.2900184,20.623543 4.9407104,19.182964 3.9298235,17.21563 3.7535544,15.014217 z"
           id="path2991"
           inkscape:path-effect="#path-effect2993"
           inkscape:original-d="m 3.7535544,15.014217 c -0.3533084,3.677088 2.010811,9.718169 7.4749096,9.617713 11.277584,-0.207334 11.4752,3.787855 11.747838,5.623995"
           inkscape:connector-curvature="0"
           transform="translate(0,1004.3622)"
           sodipodi:nodetypes="csc" />
        <path
           sodipodi:nodetypes="cc"
           inkscape:connector-curvature="0"
           inkscape:original-d="m 13.4218,1047.0827 c 5.306198,-0.053 10.66652,-11.4936 9.861325,-14.4115"
           inkscape:path-effect="#path-effect3802"
           id="path3771"
           d="m 13.4218,1047.0827 c 1.474316,0.379 3.265397,-0.159 4.687797,-0.9906 0,0 0,0 0,0 1.782195,-0.9767 3.398884,-2.3404 4.805706,-3.8036 0,0 0,0 10e-7,0 1.387776,-1.4186 2.676087,-3.0391 3.773403,-4.9133 0.855757,-0.909 1.628922,-2.7649 1.414272,-6.034 l -9.639708,2.66 c 0.413719,-0.992 0.364998,-0.4253 0.50436,0.9167 0.02812,1.4852 -0.193459,3.0767 -0.594464,4.6962 0,0 0,0 0,0 -0.430719,1.6576 -0.95833,3.2698 -1.853933,4.7315 -1e-6,0 -1e-6,0 -1e-6,0 -0.752085,1.1485 -1.630982,2.3287 -3.097433,2.7371 z"
           style="fill:#000000;fill-rule:evenodd;stroke:none"
           inkscape:transform-center-x="9.987364"
           inkscape:transform-center-y="2.6601497" />
        <path
           sodipodi:nodetypes="csc"
           transform="translate(0,1004.3622)"
           inkscape:connector-curvature="0"
           inkscape:original-d="m 2.7298577,21.042653 c -0.2395644,5.269505 8.3985753,8.670871 13.2758573,6.205392 5.135404,-2.59596 5.333021,-0.193189 7.653051,4.372809"
           inkscape:path-effect="#path-effect2993"
           id="path3798"
           d="m 2.7298577,21.042653 c -0.2894226,1.273698 0.00745,2.740248 0.7547067,3.983923 0.8076328,1.355466 2.020168,2.497449 3.3779986,3.357042 2e-7,0 5e-7,0 7e-7,0 2.7564555,1.845982 6.4979603,2.863639 10.5180673,1.584325 1.025274,-0.23705 1.740703,-0.417771 1.979625,-0.158857 0,0 0,0 1e-6,1e-6 -0.201781,0.157744 -0.48776,0.177025 -1.076764,-0.0426 -0.177173,-0.10478 -0.274752,0.22945 0.0057,0.893444 0.253122,0.921969 0.511351,1.995737 0.911976,3.225865 l 8.915164,-4.529886 c -0.59907,-0.73735 -1.236949,-1.682543 -1.992795,-2.723313 -0.427959,-0.714101 -1.280813,-1.784467 -2.631035,-2.901656 -1.591109,-1.084499 -3.248888,-1.425886 -4.769277,-1.151964 -1e-6,0 -2e-6,0 -3e-6,1e-6 -1.907173,0.447998 -3.195001,1.214282 -4.092439,1.949168 -1.228588,1.373915 -3.965534,1.69548 -6.5954248,1.180171 -4e-7,0 -8e-7,-10e-7 -1.2e-6,-10e-7 C 6.7911684,25.427218 5.56268,24.963337 4.5499884,24.137476 3.6499304,23.407147 2.9025144,22.337358 2.7298577,21.042653 z"
           style="fill:#000000;fill-rule:evenodd;stroke:none" />
        <path
           style="fill:#000000;fill-rule:evenodd;stroke:none"
           d="m 2.8436018,25.933649 c 1.1190613,3.291859 4.0536139,6.144534 7.4188432,7.939108 1.582172,0.886157 3.375259,1.592488 5.407336,1.941314 0,0 10e-7,0 10e-7,0 1.595761,0.355315 3.598394,0.269343 5.893399,-0.788247 0,0 0,10e-7 0,10e-7 -0.507498,0.321127 -0.50432,0.706417 -0.04336,0.709295 0.589436,0.369635 0.531465,0.336562 -0.578948,0.08253 l 5.435786,-8.393582 c -2.276105,-1.008953 -3.814926,-1.125178 -4.613785,-0.792608 -1.155248,-0.04027 -2.870494,0.484293 -4.717465,1.710848 0,1e-6 -1e-6,1e-6 -2e-6,2e-6 0.188847,0.366082 -0.454955,0.673943 -1.401367,1.039431 -1.171199,0.361645 -2.563592,0.439778 -4.02716,0.333658 C 8.5172633,29.403773 5.2136119,28.4776 2.8436018,25.933649 z"
           id="path3800"
           inkscape:path-effect="#path-effect2993"
           inkscape:original-d="m 2.8436018,25.933649 c 3.2865019,5.496993 12.8160962,8.214006 16.4606922,5.750416 1.153792,-0.779915 3.626859,-0.534421 4.354472,-0.06321"
           inkscape:connector-curvature="0"
           transform="translate(0,1004.3622)"
           sodipodi:nodetypes="csc" />
        <path
           inkscape:transform-center-y="2.6601497"
           inkscape:transform-center-x="9.987364"
           style="fill:#000000;fill-rule:evenodd;stroke:none"
           d="m 16.834122,1047.8789 c 1.425371,0.1545 3.070349,-0.4722 4.279593,-1.7207 1.282906,-1.3053 2.203531,-3.0106 2.821316,-4.6583 0,0 0,0 0,0 0.668761,-1.7051 1.142264,-3.5054 1.457302,-5.3096 0,0 0,0 0,0 0.253604,-1.2669 0.415832,-2.7085 0.322019,-4.3941 l -9.639708,2.66 c 0.514543,0.519 0.946978,1.3627 1.384856,2.3753 0,0 0,0 0,0 0.56697,1.3124 1.04671,2.6552 1.344173,4.0547 0.256594,1.3724 0.478125,2.7085 0.203147,4.0155 -0.198455,1.1119 -0.89472,2.3273 -2.172698,2.9772 z"
           id="path3804"
           inkscape:path-effect="#path-effect3802"
           inkscape:original-d="m 16.834122,1047.8789 c 5.874918,-1.0766 4.865571,-11.8348 4.060376,-14.7527"
           inkscape:connector-curvature="0"
           sodipodi:nodetypes="cc" />
        <path
           sodipodi:nodetypes="cc"
           inkscape:connector-curvature="0"
           inkscape:original-d="m 20.701421,1047.7652 c 2.576339,-0.7354 3.728131,-12.4036 2.922936,-15.3215"
           inkscape:path-effect="#path-effect3802"
           id="path3806"
           d="m 20.701421,1047.7652 c 0.416076,0.01 0.865867,-0.2453 1.201405,-0.5377 0.502529,-0.4115 0.93226,-0.9325 1.30468,-1.4435 0,0 0,0 0,0 1.023303,-1.389 1.841426,-2.9706 2.554043,-4.5093 0,0 0,0 0,0 0.771317,-1.6547 1.451014,-3.3927 2.008958,-5.2194 0.448091,-1.14 0.82431,-2.7034 0.673704,-4.9416 l -9.639708,2.66 c 0.477135,0.037 0.770661,0.8823 1.164265,2.1015 0.481287,1.4925 0.855927,3.0677 1.131612,4.6958 0,0 0,0 0,0 0.246796,1.5468 0.463617,3.0484 0.40862,4.5876 0,0 0,0 0,0 -0.02495,0.5681 -0.05563,1.114 -0.212361,1.6447 -0.120242,0.359 -0.246834,0.7342 -0.595218,0.9619 z"
           style="fill:#000000;fill-rule:evenodd;stroke:none"
           inkscape:transform-center-x="9.987364"
           inkscape:transform-center-y="2.6601497" />
      </g>
      <path
         sodipodi:nodetypes="cc"
         inkscape:connector-curvature="0"
         inkscape:original-d="m 33.011465,1024.1147 c 0.357583,-4.0986 -4.187233,-4.6199 -9.351041,-3.3274"
         inkscape:path-effect="#path-effect3777"
         id="path3775"
         d="m 33.011465,1024.1147 c 0.434026,-0.8183 0.692229,-1.8724 0.281097,-3.0835 -10e-7,0 -10e-7,0 -10e-7,0 -0.437022,-1.0923 -1.324277,-2.0523 -2.322946,-2.6351 0,0 0,0 0,0 -2.565482,-1.6319 -5.878562,-2.2841 -8.523238,-2.4592 l 2.428094,9.7008 c 1.768068,-1.2796 3.150492,-2.7574 4.968846,-3.1751 0,0 1e-6,0 1e-6,0 0.5576,-0.1518 1.183319,-0.3227 1.718881,-0.1259 1e-6,0 1e-6,0 1e-6,0 0.616214,0.1505 1.163497,0.8969 1.449265,1.778 z"
         style="fill:#000000;fill-rule:evenodd;stroke:none"
         inkscape:transform-center-x="-1.5342796"
         inkscape:transform-center-y="10.17939" />
      <use
         height="48"
         width="48"
         transform="matrix(-1,0,0,1,47.176315,0)"
         id="use3796"
         xlink:href="#g3791"
         y="0"
         x="0" />
      <path
         sodipodi:nodetypes="sszssss"
         inkscape:connector-curvature="0"
         id="path3824"
         d="m 28.593606,1020.8108 c 0,2.9796 -4.089186,7.3635 -0.546356,9.0565 1.66032,0.7934 -3.515052,1.6345 -4.957201,1.543 -1.442149,-0.091 -7.069298,0.1527 -5.64069,-1.2703 3.937315,-3.9219 0.137133,-5.3998 0.137133,-9.3292 0,-3.0395 2.464026,-5.5035 5.503557,-5.5035 3.039531,0 5.503557,2.464 5.503557,5.5035 z"
         style="fill:#000000;stroke:none" />
    </g>
    <path
       style="fill:#ffffff;fill-opacity:1;stroke:none"
       d="m 40.089654,1010.8752 c 1.098472,-0.03 0.129597,-2.1986 -2.649919,-2.4042 -2.779509,-0.2053 -2.890248,-0.1003 -4.42564,0.3277 -2.738858,0.7634 -2.773105,2.3913 -3.114338,2.3496 -0.341233,-0.042 -1.388749,0.4095 -1.428577,1.4448 0.684118,9.2174 12.957093,10.7395 12.957093,10.7395 0,0 -4.533551,-5.0399 -2.636259,-7.8134 0.296634,-0.4334 0.757665,-0.9234 1.270321,-1.038 0.914598,-0.2045 3.406122,-0.4451 3.769988,-0.027 0.299928,0.3446 0,1.3932 0,1.3932 0,0 0.584048,-0.4479 0.710288,-1.1748 0.2584,-1.4874 -0.280341,-3.1876 -2.540645,-3.7288 -0.796509,-0.1908 -1.447409,-0.1557 -1.912312,-0.068 z"
       id="path3553"
       inkscape:connector-curvature="0"
       sodipodi:nodetypes="czszccssscsscc"
       inkscape:export-filename="/home/ejosvp/proyectos/aguila/src/Storm/AguilaBundle/Resources/public/images/logo.png"
       inkscape:export-xdpi="108.26692"
       inkscape:export-ydpi="108.26692" />
    <path
       sodipodi:type="arc"
       style="fill:#ffffff;fill-opacity:1;stroke:#000000;stroke-opacity:1"
       id="path2987-3-9"
       sodipodi:cx="24"
       sodipodi:cy="24"
       sodipodi:rx="24"
       sodipodi:ry="24"
       d="M 48,24 A 24,24 0 1 1 0,24 24,24 0 1 1 48,24 z"
       transform="matrix(0.468935,0,0,0.468935,24.93306,1028.6703)" />
    <path
       style="fill:#000000;fill-opacity:1;stroke:none"
       d="m 39.74058,1034.9488 c 1.098472,-0.03 0.129597,-2.1986 -2.649919,-2.4042 -2.779509,-0.2053 -2.890248,-0.1003 -4.42564,0.3277 -2.738858,0.7634 -2.773105,2.3913 -3.114338,2.3496 -0.341233,-0.042 -1.388749,0.4095 -1.428577,1.4448 0.684118,9.2174 12.957094,10.7395 12.957094,10.7395 0,0 -4.533552,-5.0399 -2.63626,-7.8134 0.296634,-0.4334 0.757665,-0.9234 1.270322,-1.038 0.914597,-0.2045 3.406121,-0.4451 3.769987,-0.027 0.299928,0.3446 0,1.3932 0,1.3932 0,0 0.584048,-0.4479 0.710288,-1.1748 0.2584,-1.4874 -0.280341,-3.1876 -2.540645,-3.7288 -0.796509,-0.1908 -1.447409,-0.1557 -1.912312,-0.068 z"
       id="path3553-6"
       inkscape:connector-curvature="0"
       sodipodi:nodetypes="czszccssscsscc"
       inkscape:export-filename="/home/ejosvp/proyectos/aguila/web/favicon.ico2.png"
       inkscape:export-xdpi="90"
       inkscape:export-ydpi="90" />
  </g>
</svg>
